<?xml version="1.0" standalone="no"?>
<!DOCTYPE svg PUBLIC "-//W3C//DTD SVG 20010904//EN"
 "http://www.w3.org/TR/2001/REC-SVG-20010904/DTD/svg10.dtd">
<svg version="1.0" xmlns="http://www.w3.org/2000/svg"
 width="518.000000pt" height="518.000000pt" viewBox="0 0 518.000000 518.000000"
 preserveAspectRatio="xMidYMid meet">
<metadata>
Created by potrace 1.14, written by Peter Selinger 2001-2017
</metadata>
<g transform="translate(0.000000,518.000000) scale(0.100000,-0.100000)"
fill="#000000" stroke="none">
<path d="M2045 4922 c-180 -12 -494 -75 -581 -117 -88 -43 -118 -134 -72 -217
46 -80 101 -89 290 -44 183 44 287 58 463 61 259 5 443 -23 685 -101 667 -217
1184 -771 1360 -1459 16 -64 35 -156 42 -203 15 -112 15 -504 -1 -602 -71
-446 -272 -843 -585 -1156 -333 -333 -760 -540 -1226 -594 -113 -13 -332 -13
-451 0 -147 16 -200 16 -236 -3 -66 -35 -94 -146 -53 -213 49 -79 198 -105
560 -99 129 2 255 8 280 14 25 5 65 12 90 16 84 12 275 65 390 107 239 87 521
249 693 396 275 237 461 470 612 767 128 252 216 540 240 785 4 36 9 76 11 90
7 39 6 328 -1 400 -44 443 -186 831 -433 1175 -103 143 -208 259 -367 405
-312 286 -739 488 -1190 564 -123 21 -403 36 -520 28z"/>
<path d="M2020 4238 c-325 -30 -673 -168 -918 -364 -103 -82 -287 -274 -352
-365 -100 -142 -121 -210 -87 -276 22 -42 73 -83 105 -85 15 0 34 -2 42 -3 20
-2 60 15 84 34 10 9 57 68 104 131 201 271 434 446 725 545 164 55 293 74 477
70 85 -2 171 -6 190 -10 240 -44 452 -133 630 -264 85 -62 219 -194 283 -278
117 -155 204 -336 258 -538 30 -115 32 -129 32 -315 1 -209 -9 -286 -59 -444
-71 -228 -167 -381 -384 -615 -52 -56 -98 -110 -101 -119 -12 -32 0 -113 22
-144 12 -17 38 -37 58 -45 83 -35 140 -10 265 113 288 284 450 619 512 1054
10 73 7 308 -5 400 -81 596 -448 1102 -984 1355 -289 136 -591 191 -897 163z"/>
<path d="M2098 3625 c-2 -1 -28 -5 -58 -9 -126 -13 -323 -87 -443 -166 -103
-68 -132 -149 -84 -235 25 -46 93 -84 139 -79 15 2 79 30 141 63 158 84 225
103 372 107 216 6 391 -56 534 -191 108 -101 178 -212 223 -355 30 -96 32
-297 5 -400 -55 -204 -202 -387 -385 -480 -171 -86 -319 -107 -517 -71 l-110
21 -45 -23 c-58 -29 -90 -76 -90 -135 0 -122 98 -176 346 -189 323 -16 627
102 839 328 118 125 193 252 251 424 35 105 37 118 42 271 5 183 -4 255 -49
388 -75 219 -222 413 -414 546 -174 120 -358 179 -577 184 -65 2 -119 2 -120
1z"/>
</g>
</svg>
